Coordinates
version=1
nRows=16
nColumns=36
inDegrees=yes

Units are S.I. units (second, meters, Newtons, ...)
If the header above contains a line with 'inDegrees', this indicates whether rotational values are in degrees (yes) or radians (no).

endheader
time	pelvis_tilt	pelvis_list	pelvis_rotation	pelvis_tx	pelvis_ty	pelvis_tz	hip_flexion_r	hip_adduction_r	hip_rotation_r	knee_angle_r	knee_angle_r_beta	ankle_angle_r	subtalar_angle_r	mtp_angle_r	hip_flexion_l	hip_adduction_l	hip_rotation_l	knee_angle_l	knee_angle_l_beta	ankle_angle_l	subtalar_angle_l	mtp_angle_l	lumbar_extension	lumbar_bending	lumbar_rotation	arm_flex_r	arm_add_r	arm_rot_r	elbow_flex_r	pro_sup_r	arm_flex_l	arm_add_l	arm_rot_l	elbow_flex_l	pro_sup_l
      1.37000000	    -14.73098955	      3.13668353	     -4.75852734	     -0.33151619	      0.65675303	     -0.58245331	     74.12713885	      6.14067521	      6.92776653	     92.86505867	      1.62080103	     32.47723979	     -8.22689361	     -7.50000418	     71.61919682	    -10.81990926	     -3.39984577	     92.92619380	      1.62186804	     33.34161525	      2.21946010	     -7.50000418	    -34.23553883	      0.50947490	     -4.27761278	    116.62800058	    -10.01991094	     26.58547691	    109.77613075	    100.43712635	    128.38304904	    -24.21951571	     51.05725948	    110.05884297	    100.74121100
      1.38000000	    -14.43146689	      3.17047172	     -4.82268678	     -0.32455586	      0.66821496	     -0.58186258	     72.08491014	      5.87377005	      6.88266828	     91.14748352	      1.59082369	     31.94202169	     -8.11112767	     -7.50000412	     69.54697128	    -10.78443728	     -3.95386529	     91.16016678	      1.59104506	     32.64956753	      2.20932388	     -7.50000412	    -32.94843414	      0.54982535	     -3.92490581	    119.49972964	    -10.50488191	     27.70136115	    109.97728989	    100.16123717	    131.13806343	    -24.60078775	     52.40600426	    110.46116673	    100.52931251
      1.39000000	    -14.01340031	      3.27045960	     -4.87762821	     -0.31739995	      0.68078740	     -0.58122497	     69.84228303	      5.50658171	      6.86128222	     89.26461150	      1.55796138	     31.24005837	     -8.12574358	     -7.50000405	     67.23280730	    -10.65305294	     -4.59128513	     89.16008552	      1.55613705	     31.70602809	      1.97420585	     -7.50000405	    -31.69122749	      0.52766364	     -3.72788837	    121.86568396	    -10.85060414	     28.61231369	    109.79656308	     99.77453840	    133.93552704	    -25.10900497	     54.28051033	    110.64764087	    100.23725053
      1.40000000	    -13.52066203	      3.48029836	     -4.89867795	     -0.31007560	      0.69437726	     -0.58046524	     67.45509609	      5.00178880	      6.83708181	     87.17161072	      1.52143162	     30.17606201	     -8.44871988	     -7.50000281	     64.71747711	    -10.39738249	     -5.30045720	     86.87750839	      1.51629857	     30.31900621	      1.35724076	     -7.50000281	    -30.41653082	      0.35280790	     -4.05491468	    123.48598944	    -10.99230634	     29.32035114	    109.84521013	     93.92340306	    137.00432954	    -26.03965006	     57.31776823	    111.67226144	     93.62537232
      1.41000000	    -12.87261426	      3.68154557	     -4.94865681	     -0.30252367	      0.70918915	     -0.57956556	     64.78433189	      4.48882377	      6.86978461	     84.86247785	      1.48112965	     29.09970658	     -8.21717285	     -7.50000276	     61.91806805	    -10.17860328	     -5.99932624	     84.34735037	      1.47213898	     28.90528797	      1.59617286	     -7.50000276	    -29.14697483	      0.15299443	     -3.98660468	    124.78760491	    -11.79268231	     30.58494605	    109.67292170	     93.83042982	    138.97650108	    -26.51847620	     59.11300149	    111.82182217	     93.59962326
      1.42000000	    -12.14499754	      3.94905628	     -4.98480360	     -0.29475579	      0.72505740	     -0.57840789	     61.96116154	      3.88529339	      6.88412066	     82.35414357	      1.43735096	     27.70050892	     -8.22724593	     -7.50000270	     58.91344272	     -9.92410435	     -6.82963442	     81.51037555	      1.42262443	     27.16367121	      1.61402028	     -7.50000270	    -27.84754979	     -0.21778589	     -4.28104195	    125.35789176	    -12.74178269	     32.07208849	    109.70000854	     93.54640072	    140.89881908	    -27.04924205	     61.39562141	    111.96320656	     93.46927543
      1.43000000	    -11.45520328	      4.33292974	     -4.96867903	     -0.28658707	      0.74187934	     -0.57715011	     59.08418215	      3.14372694	      6.94025234	     79.61009481	      1.38945827	     25.83008934	     -8.53374317	     -7.50000182	     55.79892279	     -9.51544265	     -7.79650242	     78.31652149	      1.36688116	     24.97935748	      1.35471061	     -7.50000182	    -26.33457391	     -0.66323133	     -4.80183316	    125.21983213	    -13.89213053	     34.19503323	    110.44187134	     88.21985775	    142.15524642	    -27.80743940	     63.74431925	    112.78039829	     89.74509395
      1.44000000	    -10.69144511	      4.80831277	     -4.95762303	     -0.27802123	      0.75984332	     -0.57581193	     56.00899431	      2.25191647	      6.98170550	     76.58507134	      1.33666165	     24.03455752	     -8.38702426	     -7.50000176	     52.40570194	     -9.01759713	     -8.94224446	     74.72935150	      1.30427323	     22.71942423	      1.52172105	     -7.50000176	    -24.77709600	     -1.13205605	     -5.04254351	    124.92475805	    -15.62898102	     37.12466703	    111.15251097	     88.11601966	    142.23393847	    -28.62904693	     65.31138142	    113.40094474	     89.71740906
      1.45000000	     -9.87057912	      5.37875817	     -4.95565034	     -0.26911801	      0.77902622	     -0.57438592	     52.75792260	      1.19623762	      6.95768139	     73.23443356	      1.27818199	     21.97485423	     -8.01990746	     -7.50000172	     48.72688000	     -8.39386273	    -10.24342199	     70.65934445	      1.23323821	     20.17888999	      2.08079854	     -7.50000172	    -23.17213453	     -1.73253107	     -5.18694058	    124.07009904	    -17.82416816	     40.27740123	    112.46131296	     88.05692787	    141.52387490	    -29.75521817	     66.87050349	    114.53009002	     89.75712724
      1.46000000	     -8.92601888	      5.98421816	     -4.97953449	     -0.25981600	      0.79957538	     -0.57291930	     49.20593937	     -0.00921185	      6.77429326	     69.46264502	      1.21235186	     19.54742819	     -7.68883606	     -7.50000168	     44.67575327	     -7.65118021	    -11.63723245	     66.04674118	      1.15273309	     17.20803436	      2.58626695	     -7.50000168	    -21.58788075	     -2.45082624	     -5.06709727	    122.68705009	    -20.70418564	     43.69750884	    114.38942605	     88.04677845	    139.97839784	    -31.09090063	     68.66480335	    116.05938723	     89.81223651
      1.47000000	     -8.06328085	      6.65541450	     -4.94569721	     -0.25007985	      0.82113906	     -0.57166421	     45.53881337	     -1.42401205	      6.38939351	     65.20178721	      1.13798586	     16.55599033	     -7.66731293	     -7.50000153	     40.50463533	     -6.64623109	    -12.97305811	     60.81312862	      1.06138932	     13.52471241	      2.66127853	     -7.50000153	    -19.77840895	     -3.19038988	     -4.60965200	    120.82026886	    -24.21473369	     47.49127914	    116.88141925	     87.48323077	    137.17045138	    -32.62870868	     70.32637000	    118.00506309	     89.23420522
      1.48000000	     -7.23553644	      7.45384923	     -4.82076905	     -0.24008363	      0.84365144	     -0.57062119	     41.70814231	     -3.16806206	      5.75491592	     60.43853851	      1.05485149	     13.60219172	     -6.71522373	     -7.50000145	     36.20622098	     -5.34807086	    -14.25150128	     54.98143230	      0.95960702	      9.28953675	      3.53394953	     -7.50000145	    -17.91300268	     -3.97443364	     -4.41689556	    118.34750443	    -27.61701370	     51.16569353	    119.35342945	     87.68898130	    133.93014952	    -34.78565003	     72.44191062	    120.39475367	     89.24211678
      1.49000000	     -6.44016526	      8.15658773	     -4.60989395	     -0.23002282	      0.86711374	     -0.56970241	     37.59601415	     -4.95735020	      4.68115299	     55.00100435	      0.95994862	     10.22496478	     -5.43064510	     -7.50000140	     31.82644705	     -3.93998364	    -15.29583656	     48.56681167	      0.84765077	      4.16384285	      4.55362157	     -7.50000140	    -16.01402574	     -4.59099933	     -4.20315941	    115.34454667	    -31.06529183	     54.92601514	    121.67584532	     88.35870313	    129.71886930	    -37.25972916	     74.17376788	    122.95158879	     89.47865273
      1.50000000	     -5.35296643	      8.72709532	     -4.30440690	     -0.22002934	      0.89209117	     -0.56890355	     32.74396367	     -6.74003814	      3.09538205	     48.69654102	      0.84991498	      6.23222468	     -3.50933059	     -7.50000143	     27.04282633	     -2.43288694	    -16.00921704	     41.55941338	      0.72534860	     -1.99730915	      6.21888073	     -7.50000143	    -14.47037873	     -5.05026148	     -4.31514761	    111.52118745	    -34.14010989	     58.38666458	    123.35799568	     89.24738617	    124.82598240	    -40.22541453	     75.59579444	    125.56646548	     90.15065598
      1.51000000	     -4.17445443	      9.28589012	     -3.90710989	     -0.21024083	      0.91830304	     -0.56838543	     27.33905293	     -8.40504723	      1.33582993	     41.38008477	      0.72221872	      1.12989180	     -1.47028328	     -7.50000149	     22.07700425	     -0.56079966	    -15.89935671	     33.61593603	      0.58670876	    -10.39473116	      6.77264766	     -7.50000149	    -13.08625064	     -5.43328389	     -4.36272371	    107.17429047	    -37.19530052	     61.76743379	    124.43079548	     90.22339979	    118.28716204	    -43.13238429	     75.46680307	    127.95912255	     90.77499793
      1.52000000	     -3.27793366	      9.95835622	     -3.51706122	     -0.20065179	      0.94498754	     -0.56795073	     21.96661358	     -9.79377285	      0.13214678	     33.19280752	      0.57932378	     -5.84985431	      0.33867675	     -7.50000155	     17.32551952	      1.66250453	    -14.54330849	     24.96390902	      0.43570241	    -20.09257534	      6.15490395	     -7.50000155	    -11.53673539	     -5.97516885	     -4.11800020	    101.94640923	    -40.74562558	     64.98401423	    125.58697697	     90.80011422	    110.47496432	    -45.75653040	     74.53023041	    130.30974266	     90.98133032
